<svg version="1.1" id="Layer_1" xmlns="http://www.w3.org/2000/svg" xmlns:xlink="http://www.w3.org/1999/xlink" x="0px" y="0px"
	 width="100%" viewBox="0 0 219 205" enable-background="new 0 0 219 205" xml:space="preserve">
<path fill="#000000" opacity="0.000000" stroke="none" 
	d="
M154.000000,206.000000 
	C102.666672,206.000000 51.833340,206.000000 1.000007,206.000000 
	C1.000005,137.666672 1.000005,69.333351 1.000002,1.000016 
	C73.999992,1.000011 146.999985,1.000011 219.999969,1.000005 
	C219.999985,69.333321 219.999985,137.666641 220.000000,205.999969 
	C198.166672,206.000000 176.333328,206.000000 154.000000,206.000000 
M140.517624,38.997890 
	C136.934250,39.736561 133.381378,39.780216 132.029205,44.670403 
	C127.636253,60.557735 122.786995,76.319923 118.018677,92.101662 
	C116.918152,95.744034 115.440460,99.272438 114.349449,102.268150 
	C110.532631,99.191170 107.037766,96.373734 103.292374,93.354332 
	C103.253555,93.391014 102.533524,93.744904 102.378204,94.266853 
	C99.861824,102.722870 97.299553,111.169487 95.068970,119.702225 
	C94.686043,121.167061 95.295601,123.421860 96.283585,124.623825 
	C100.851540,130.181091 105.647034,135.557327 110.491699,140.879456 
	C115.385628,146.255707 120.433289,151.492004 125.413597,156.789627 
	C126.090210,156.574921 126.766823,156.360214 127.443436,156.145508 
	C139.790283,115.591354 152.137115,75.037209 164.828445,33.351559 
	C156.199600,35.419094 148.779510,37.197002 140.517624,38.997890 
M79.690804,70.608543 
	C80.991043,65.183403 76.294518,63.056427 73.579849,59.999275 
	C72.020699,58.243416 69.302963,55.932522 67.507156,56.236538 
	C58.241859,57.805046 49.106049,60.138432 38.190022,62.595490 
	C49.399918,74.621300 59.581509,85.543961 70.482552,97.238441 
	C72.127350,92.993515 73.437492,89.991592 74.457726,86.894180 
	C76.173149,81.686203 77.704308,76.417549 79.690804,70.608543 
z"/>
<path fill="#00A57E" opacity="1.000000" stroke="none" 
	d="
M140.938522,38.986404 
	C148.779510,37.197002 156.199600,35.419094 164.828445,33.351559 
	C152.137115,75.037209 139.790283,115.591354 127.443436,156.145508 
	C126.766823,156.360214 126.090210,156.574921 125.413597,156.789627 
	C120.433289,151.492004 115.385628,146.255707 110.491699,140.879456 
	C105.647034,135.557327 100.851540,130.181091 96.283585,124.623825 
	C95.295601,123.421860 94.686043,121.167061 95.068970,119.702225 
	C97.299553,111.169487 99.861824,102.722870 102.378204,94.266853 
	C102.533524,93.744904 103.253555,93.391014 103.292374,93.354332 
	C107.037766,96.373734 110.532631,99.191170 114.349449,102.268150 
	C115.440460,99.272438 116.918152,95.744034 118.018677,92.101662 
	C122.786995,76.319923 127.636253,60.557735 132.029205,44.670403 
	C133.381378,39.780216 136.934250,39.736561 140.938522,38.986404 
z"/>
<path fill="#01A57E" opacity="1.000000" stroke="none" 
	d="
M79.501892,70.891479 
	C77.704308,76.417549 76.173149,81.686203 74.457726,86.894180 
	C73.437492,89.991592 72.127350,92.993515 70.482552,97.238441 
	C59.581509,85.543961 49.399918,74.621300 38.190022,62.595490 
	C49.106049,60.138432 58.241859,57.805046 67.507156,56.236538 
	C69.302963,55.932522 72.020699,58.243416 73.579849,59.999275 
	C76.294518,63.056427 80.991043,65.183403 79.501892,70.891479 
z"/>
</svg>